<svg width="88" height="76" viewBox="0 0 88 76" fill="none" xmlns="http://www.w3.org/2000/svg">
<path fill-rule="evenodd" clip-rule="evenodd" d="M13.6904 0C13.6908 8.50135 28.9999 11.0007 33.2315 0.330078C36.9341 1.53902 40.1578 5.28615 40.9561 9.09863C42.5306 16.6189 40.7603 25.6209 36 33.001C30.7574 41.1288 30.8372 47.373 34.5 55.001C37.2718 60.7734 43.7193 62.0378 50 60.791C55.5306 59.6929 60.8409 51.103 62.4815 48.2256C60.1325 48.2084 57.9601 49.6945 55.4424 48.2412L55.4444 48.2402C52.1126 46.3167 50.7251 37.5136 55.0879 29.957C56.4559 27.5877 60.1498 25.3534 62.1358 26.5C66.1075 28.7932 63.3378 35.3265 70.3213 39.3584C77.3048 43.3904 81.5779 37.7254 85.5498 40.0186C87.5357 41.1652 87.448 45.4812 86.0801 47.8506C81.7174 55.407 73.4002 58.6069 70.0684 56.6836C67.4077 55.1475 67.7807 52.305 66.3428 50.2422C65.269 53.3295 58.72 71.261 50.5 74.001C41.5 77.0008 24.344 76.1208 14.6397 68.5625C1.86736 58.6142 -1.45971 35.857 0.537124 19.791C1.25439 14.021 4.10622 6.56553 8.69044 2.98828C10.4735 1.59756 11.4814 0.921509 13.6904 0ZM74.3369 49.2002C73.4919 48.7123 72.4348 48.994 71.9463 49.8398C71.5195 50.5791 71.6696 51.5102 72.2842 52.0557C72.3717 52.1336 72.4825 52.1696 72.5879 52.2305C73.4329 52.7181 74.4885 52.4369 74.9776 51.5898C75.0941 51.3916 75.1702 51.1723 75.2012 50.9443C75.2321 50.7163 75.2178 50.484 75.1582 50.2617C75.0986 50.0394 74.9954 49.8305 74.8545 49.6484C74.7135 49.4663 74.5373 49.3137 74.3369 49.2002ZM77.5147 47.9521C77.2865 47.9211 77.0545 47.9366 76.832 47.9961C76.6096 48.0557 76.4009 48.1589 76.2188 48.2998C76.0368 48.4407 75.884 48.6162 75.7705 48.8164C75.3439 49.5556 75.4929 50.4851 76.1084 51.0312C76.1959 51.1093 76.3066 51.1452 76.4121 51.2061C77.2595 51.6952 78.3133 51.4122 78.8018 50.5664C78.9185 50.3679 78.9945 50.1481 79.0254 49.9199C79.0564 49.6918 79.0421 49.4597 78.9824 49.2373C78.9228 49.0149 78.8197 48.8062 78.6787 48.624C78.5378 48.4419 78.3615 48.2903 78.1611 48.1768C77.9626 48.06 77.7429 47.9832 77.5147 47.9521ZM73.3115 45.376C72.4653 44.8875 71.4086 45.1719 70.9209 46.0166C70.4943 46.7558 70.6432 47.6853 71.2588 48.2314C71.3463 48.3094 71.457 48.3454 71.5625 48.4062C72.4099 48.8953 73.4637 48.6123 73.9522 47.7666C74.0689 47.5682 74.1448 47.3482 74.1758 47.1201C74.2067 46.892 74.1924 46.6599 74.1328 46.4375C74.0732 46.2151 73.97 46.0063 73.8291 45.8242C73.6881 45.6421 73.5119 45.4895 73.3115 45.376ZM76.4893 44.1289C76.2611 44.0979 76.0291 44.1124 75.8067 44.1719C75.5842 44.2314 75.3755 44.3347 75.1934 44.4756C75.0113 44.6165 74.8586 44.7919 74.7451 44.9922C74.317 45.7338 74.4675 46.6608 75.083 47.207C75.1705 47.285 75.2812 47.3219 75.3867 47.3828C76.2329 47.8711 77.2874 47.5892 77.7764 46.7422C77.8931 46.5437 77.9691 46.3239 78 46.0957C78.0309 45.8676 78.0167 45.6354 77.957 45.4131C77.8974 45.1909 77.7941 44.9828 77.6533 44.8008C77.5124 44.6186 77.3362 44.4661 77.1358 44.3525C76.9372 44.2358 76.7175 44.1599 76.4893 44.1289ZM59.7998 37.9795L57.375 36.5791L55.9756 39.0039L58.4004 40.4033L57.001 42.8271L59.4258 44.2275L60.8252 41.8037L63.25 43.2031L64.6494 40.7793L62.2246 39.3799L63.624 36.9551L61.1992 35.5557L59.7998 37.9795Z" fill="url(#paint0_linear_49_151)"/>
<defs>
<linearGradient id="paint0_linear_49_151" x1="4.72109" y1="3.10259" x2="55.2765" y2="63.2845" gradientUnits="userSpaceOnUse">
<stop offset="0.00961538" stop-color="#FED800"/>
<stop offset="0.4375" stop-color="#4D8746"/>
<stop offset="1" stop-color="#006465"/>
</linearGradient>
</defs>
</svg>
