<svg width="59" height="49" viewBox="0 0 59 49" fill="none" xmlns="http://www.w3.org/2000/svg">
<path fill-rule="evenodd" clip-rule="evenodd" d="M7.82607 0C17.8261 6 23.0767 -0.634101 26.2677 0.409144C28.7659 1.22583 29.4103 3.90848 29.4103 6.40848C29.4103 11.9085 25.8555 16.4896 22.6438 21.4752C19.1066 26.9662 17.9389 32.2552 20.4103 37.4085C22.2803 41.3081 29.0887 41.3423 33.3263 40.5C37.0527 39.7594 40.6485 35.5371 42.0116 33.8166C42.2647 33.4972 42.7138 33.4102 43.0645 33.6174C43.4649 33.8418 43.6457 34.3165 43.4638 34.7382C42.7057 36.4958 40.3697 41.1001 35.3062 45.1024C27.6144 51.1821 16.8737 49.052 10.3262 43.9458C1.70872 37.225 -1.02113 27.8537 0.326164 17C0.810111 13.1019 1.90967 9.00006 3.90967 5.5C4.42904 4.59109 6.33551 0.622556 7.82607 0ZM36.9995 20.1347C37.9225 18.5341 40.4141 17.0255 41.754 17.7999C44.4338 19.3491 42.5657 23.7619 47.2774 26.4858C51.9892 29.2096 54.8722 25.3826 57.552 26.9318C58.8918 27.7064 58.8327 30.6221 57.9098 32.2227C54.9663 37.3276 49.3548 39.4892 47.1068 38.1899C44.8589 36.8904 45.8217 34.2063 43.5738 32.9068C41.3259 31.6073 39.4859 33.7861 37.238 32.4866L37.2394 32.4859C34.9916 31.1861 34.0561 25.2394 36.9995 20.1347ZM49.9867 33.1344C49.4166 32.8048 48.7033 32.9957 48.3738 33.5672C48.086 34.0666 48.1872 34.695 48.6018 35.0635C48.6608 35.1161 48.7349 35.1405 48.806 35.1816C49.3761 35.5111 50.0889 35.3216 50.419 34.7494C50.4977 34.6154 50.549 34.4668 50.5699 34.3127C50.5907 34.1586 50.5811 34.0018 50.5409 33.8516C50.5006 33.7013 50.4304 33.5603 50.3353 33.4373C50.2402 33.3143 50.1219 33.2111 49.9867 33.1344ZM52.1307 32.292C51.9768 32.271 51.8202 32.2808 51.6702 32.321C51.5201 32.3612 51.3793 32.431 51.2564 32.5262C51.1335 32.6214 51.0306 32.7399 50.954 32.8752C50.666 33.3746 50.7666 34.0024 51.182 34.3714C51.241 34.4241 51.3157 34.4484 51.3869 34.4895C51.9586 34.82 52.6696 34.6289 52.9992 34.0574C53.0779 33.9233 53.1292 33.7748 53.15 33.6207C53.1709 33.4666 53.1613 33.3097 53.121 33.1595C53.0808 33.0093 53.0106 32.8689 52.9155 32.7459C52.8204 32.6229 52.7021 32.5198 52.5669 32.4431C52.433 32.3642 52.2847 32.313 52.1307 32.292ZM49.2949 30.5516C48.7239 30.2216 48.011 30.4131 47.682 30.9838C47.3941 31.4832 47.4946 32.111 47.91 32.48C47.9689 32.5326 48.0431 32.5571 48.1142 32.5981C48.686 32.9286 49.3976 32.7374 49.7271 32.166C49.8059 32.0319 49.8571 31.8834 49.878 31.7292C49.8989 31.5751 49.8893 31.4183 49.849 31.2681C49.8088 31.1178 49.7386 30.9768 49.6435 30.8538C49.5484 30.7309 49.4299 30.6283 49.2949 30.5516ZM51.4389 29.7085C51.285 29.6876 51.1284 29.6974 50.9784 29.7375C50.8283 29.7778 50.6875 29.8476 50.5646 29.9427C50.4417 30.0379 50.3387 30.1564 50.2622 30.2917C49.9732 30.7928 50.0747 31.4196 50.4901 31.7886C50.5492 31.8413 50.6239 31.8656 50.695 31.9067C51.266 32.2366 51.9774 32.0461 52.3073 31.4739C52.386 31.34 52.4373 31.1918 52.4582 31.0379C52.4791 30.8837 52.4695 30.7263 52.4292 30.576C52.389 30.4259 52.3187 30.2854 52.2236 30.1624C52.1286 30.0394 52.0103 29.9363 51.8751 29.8596C51.7412 29.7807 51.5928 29.7295 51.4389 29.7085ZM40.1786 25.5543L38.5426 24.6089L37.5984 26.2463L39.2345 27.1917L38.2903 28.8291L39.9263 29.7751L40.8705 28.1377L42.5065 29.0831L43.4506 27.4457L41.8146 26.5003L42.7588 24.8629L41.1228 23.9168L40.1786 25.5543Z" fill="white"/>
</svg>
